<mxfile host="app.diagrams.net" modified="2021-04-20T07:46:57.809Z" agent="5.0 (Windows NT 10.0; WOW64) AppleWebKit/537.36 (KHTML, like Gecko) Chrome/86.0.4240.198 Safari/537.36" etag="YBeyikgCaobm1XgR4emn" version="14.6.3" type="github">
  <diagram id="AxmZ8-oWmzhpotXawzI5" name="第 1 页">
    <mxGraphModel dx="1408" dy="747" grid="0" gridSize="5" guides="1" tooltips="1" connect="1" arrows="1" fold="1" page="1" pageScale="1" pageWidth="4681" pageHeight="3300" background="#ffffff" math="0" shadow="1">
      <root>
        <mxCell id="0" />
        <mxCell id="1" parent="0" />
        <mxCell id="_F832D0rIF0pPyvkoJsy-11" style="edgeStyle=orthogonalEdgeStyle;orthogonalLoop=1;jettySize=auto;html=1;entryX=0;entryY=0.5;entryDx=0;entryDy=0;strokeWidth=2;rounded=0;shadow=1;sketch=0;" parent="1" source="_F832D0rIF0pPyvkoJsy-1" target="_F832D0rIF0pPyvkoJsy-3" edge="1">
          <mxGeometry relative="1" as="geometry" />
        </mxCell>
        <mxCell id="_F832D0rIF0pPyvkoJsy-1" value="&lt;font face=&quot;Times New Roman&quot; style=&quot;font-size: 21px&quot;&gt;DroopControl&lt;/font&gt;" style="whiteSpace=wrap;html=1;fillColor=#dae8fc;strokeColor=#6c8ebf;rounded=1;strokeWidth=2;" parent="1" vertex="1">
          <mxGeometry x="264" y="169" width="148" height="97" as="geometry" />
        </mxCell>
        <mxCell id="_F832D0rIF0pPyvkoJsy-16" style="edgeStyle=orthogonalEdgeStyle;rounded=0;sketch=0;orthogonalLoop=1;jettySize=auto;html=1;entryX=0;entryY=0.5;entryDx=0;entryDy=0;shadow=1;strokeWidth=2;" parent="1" source="_F832D0rIF0pPyvkoJsy-3" target="_F832D0rIF0pPyvkoJsy-6" edge="1">
          <mxGeometry relative="1" as="geometry" />
        </mxCell>
        <mxCell id="_F832D0rIF0pPyvkoJsy-3" value="&lt;font face=&quot;Times New Roman&quot; style=&quot;font-size: 21px&quot;&gt;InnerControl&lt;br&gt;Loops&lt;/font&gt;" style="whiteSpace=wrap;html=1;fillColor=#dae8fc;strokeColor=#6c8ebf;rounded=1;strokeWidth=2;" parent="1" vertex="1">
          <mxGeometry x="472" y="169" width="144" height="97" as="geometry" />
        </mxCell>
        <mxCell id="_F832D0rIF0pPyvkoJsy-19" style="edgeStyle=orthogonalEdgeStyle;rounded=0;sketch=0;orthogonalLoop=1;jettySize=auto;html=1;entryX=0.5;entryY=0;entryDx=0;entryDy=0;shadow=1;strokeWidth=2;" parent="1" source="_F832D0rIF0pPyvkoJsy-6" target="_F832D0rIF0pPyvkoJsy-7" edge="1">
          <mxGeometry relative="1" as="geometry" />
        </mxCell>
        <mxCell id="_F832D0rIF0pPyvkoJsy-71" style="edgeStyle=none;rounded=1;sketch=0;orthogonalLoop=1;jettySize=auto;html=1;shadow=1;strokeWidth=2;" parent="1" source="_F832D0rIF0pPyvkoJsy-6" target="_F832D0rIF0pPyvkoJsy-26" edge="1">
          <mxGeometry relative="1" as="geometry" />
        </mxCell>
        <mxCell id="_F832D0rIF0pPyvkoJsy-6" value="&lt;font face=&quot;Times New Roman&quot;&gt;&lt;span style=&quot;font-size: 21px&quot;&gt;DC/AC&lt;br&gt;&lt;/span&gt;&lt;/font&gt;&lt;font style=&quot;font-size: 21px&quot; face=&quot;Times New Roman&quot;&gt;Converter&lt;/font&gt;" style="whiteSpace=wrap;html=1;fillColor=#dae8fc;strokeColor=#6c8ebf;rounded=1;strokeWidth=2;" parent="1" vertex="1">
          <mxGeometry x="672" y="169.75" width="160" height="95.5" as="geometry" />
        </mxCell>
        <mxCell id="ayKBWq755QdoaM2mz0KZ-5" style="edgeStyle=orthogonalEdgeStyle;curved=1;rounded=0;orthogonalLoop=1;jettySize=auto;html=1;exitX=0;exitY=0.5;exitDx=0;exitDy=0;entryX=1;entryY=0.5;entryDx=0;entryDy=0;strokeWidth=2;" edge="1" parent="1" source="_F832D0rIF0pPyvkoJsy-7" target="ayKBWq755QdoaM2mz0KZ-4">
          <mxGeometry relative="1" as="geometry" />
        </mxCell>
        <mxCell id="_F832D0rIF0pPyvkoJsy-7" value="&lt;font face=&quot;Times New Roman&quot; style=&quot;font-size: 21px&quot;&gt;RealPower&lt;br&gt;Calculation&lt;/font&gt;" style="whiteSpace=wrap;html=1;fillColor=#dae8fc;strokeColor=#6c8ebf;rounded=1;strokeWidth=2;" parent="1" vertex="1">
          <mxGeometry x="672" y="320" width="160" height="97" as="geometry" />
        </mxCell>
        <mxCell id="_F832D0rIF0pPyvkoJsy-50" style="edgeStyle=orthogonalEdgeStyle;rounded=0;sketch=0;orthogonalLoop=1;jettySize=auto;html=1;entryX=0.5;entryY=1;entryDx=0;entryDy=0;shadow=1;strokeWidth=2;" parent="1" source="_F832D0rIF0pPyvkoJsy-9" target="_F832D0rIF0pPyvkoJsy-1" edge="1">
          <mxGeometry relative="1" as="geometry" />
        </mxCell>
        <mxCell id="_F832D0rIF0pPyvkoJsy-9" value="&lt;font face=&quot;Times New Roman&quot; style=&quot;font-size: 21px&quot;&gt;Secondary&lt;br&gt;Control&lt;/font&gt;" style="whiteSpace=wrap;html=1;fillColor=#dae8fc;strokeColor=#6c8ebf;rounded=1;strokeWidth=2;" parent="1" vertex="1">
          <mxGeometry x="263.995" y="320" width="148" height="97" as="geometry" />
        </mxCell>
        <mxCell id="_F832D0rIF0pPyvkoJsy-26" value="" style="line;strokeWidth=10;direction=south;html=1;perimeter=backbonePerimeter;points=[];outlineConnect=0;rounded=1;" parent="1" vertex="1">
          <mxGeometry x="919" y="169" width="10" height="261" as="geometry" />
        </mxCell>
        <mxCell id="_F832D0rIF0pPyvkoJsy-28" value="&lt;font face=&quot;Times New Roman&quot; style=&quot;font-size: 18px&quot;&gt;&lt;b&gt;AC MG&lt;/b&gt;&lt;/font&gt;" style="text;html=1;align=center;verticalAlign=middle;resizable=0;points=[];autosize=1;strokeColor=none;strokeWidth=2;" parent="1" vertex="1">
          <mxGeometry x="888" y="440" width="72" height="32" as="geometry" />
        </mxCell>
        <mxCell id="_F832D0rIF0pPyvkoJsy-81" style="edgeStyle=none;rounded=1;sketch=0;orthogonalLoop=1;jettySize=auto;html=1;exitX=1;exitY=0.25;exitDx=0;exitDy=0;entryX=0;entryY=0.25;entryDx=0;entryDy=0;shadow=1;strokeWidth=2;" parent="1" source="_F832D0rIF0pPyvkoJsy-29" target="_F832D0rIF0pPyvkoJsy-10" edge="1">
          <mxGeometry relative="1" as="geometry" />
        </mxCell>
        <mxCell id="ayKBWq755QdoaM2mz0KZ-1" style="rounded=0;orthogonalLoop=1;jettySize=auto;html=1;exitX=0.343;exitY=0;exitDx=0;exitDy=0;entryX=0.5;entryY=1;entryDx=0;entryDy=0;exitPerimeter=0;strokeWidth=2;" edge="1" parent="1" source="_F832D0rIF0pPyvkoJsy-29" target="_F832D0rIF0pPyvkoJsy-9">
          <mxGeometry relative="1" as="geometry" />
        </mxCell>
        <mxCell id="_F832D0rIF0pPyvkoJsy-29" value="" style="rounded=1;whiteSpace=wrap;html=1;sketch=0;strokeColor=#82b366;dashed=1;fillColor=#d5e8d4;arcSize=15;strokeWidth=2;" parent="1" vertex="1">
          <mxGeometry x="252.995" y="490" width="329.38" height="163" as="geometry" />
        </mxCell>
        <mxCell id="_F832D0rIF0pPyvkoJsy-32" value="&lt;font style=&quot;font-size: 24px&quot; face=&quot;Times New Roman&quot;&gt;Communication Networks&lt;/font&gt;" style="text;html=1;strokeColor=none;fillColor=none;align=center;verticalAlign=middle;whiteSpace=wrap;rounded=0;sketch=0;fontColor=#393C56;strokeWidth=2;" parent="1" vertex="1">
          <mxGeometry x="278.44" y="511.5" width="278.5" height="30.5" as="geometry" />
        </mxCell>
        <mxCell id="_F832D0rIF0pPyvkoJsy-35" value="&lt;font style=&quot;font-size: 24px&quot; face=&quot;Times New Roman&quot;&gt;Deception&lt;br&gt;Attack&lt;/font&gt;" style="ellipse;shape=cloud;whiteSpace=wrap;html=1;rounded=0;sketch=0;fontColor=#393C56;strokeColor=#FF0000;fillColor=#FF9999;verticalAlign=middle;strokeWidth=2;" parent="1" vertex="1">
          <mxGeometry x="313.68" y="542" width="206.13" height="100" as="geometry" />
        </mxCell>
        <mxCell id="_F832D0rIF0pPyvkoJsy-80" style="edgeStyle=none;rounded=1;sketch=0;orthogonalLoop=1;jettySize=auto;html=1;entryX=0.75;entryY=0;entryDx=0;entryDy=0;shadow=1;strokeWidth=2;" parent="1" target="_F832D0rIF0pPyvkoJsy-29" edge="1">
          <mxGeometry relative="1" as="geometry">
            <mxPoint x="522.415283018868" y="421.5" as="sourcePoint" />
          </mxGeometry>
        </mxCell>
        <mxCell id="_F832D0rIF0pPyvkoJsy-82" style="edgeStyle=none;rounded=1;sketch=0;orthogonalLoop=1;jettySize=auto;html=1;exitX=0;exitY=0.75;exitDx=0;exitDy=0;entryX=1;entryY=0.75;entryDx=0;entryDy=0;shadow=1;strokeWidth=2;" parent="1" source="_F832D0rIF0pPyvkoJsy-10" target="_F832D0rIF0pPyvkoJsy-29" edge="1">
          <mxGeometry relative="1" as="geometry" />
        </mxCell>
        <mxCell id="_F832D0rIF0pPyvkoJsy-10" value="&lt;font face=&quot;Times New Roman&quot; style=&quot;font-size: 21px&quot;&gt;Neighbors&lt;br&gt;Information&lt;/font&gt;" style="whiteSpace=wrap;html=1;fillColor=#dae8fc;strokeColor=#6c8ebf;rounded=1;strokeWidth=2;" parent="1" vertex="1">
          <mxGeometry x="659.01" y="523" width="185.99" height="97" as="geometry" />
        </mxCell>
        <mxCell id="ayKBWq755QdoaM2mz0KZ-6" style="edgeStyle=orthogonalEdgeStyle;curved=1;rounded=0;orthogonalLoop=1;jettySize=auto;html=1;exitX=0;exitY=0.5;exitDx=0;exitDy=0;entryX=1;entryY=0.5;entryDx=0;entryDy=0;strokeWidth=2;" edge="1" parent="1" source="ayKBWq755QdoaM2mz0KZ-4" target="_F832D0rIF0pPyvkoJsy-9">
          <mxGeometry relative="1" as="geometry" />
        </mxCell>
        <mxCell id="ayKBWq755QdoaM2mz0KZ-4" value="&lt;font face=&quot;Times New Roman&quot; style=&quot;font-size: 21px&quot;&gt;&lt;span&gt;EventTrigger&lt;br&gt;&lt;/span&gt;Mechanism&lt;/font&gt;" style="whiteSpace=wrap;html=1;fillColor=#dae8fc;strokeColor=#6c8ebf;rounded=1;strokeWidth=2;" vertex="1" parent="1">
          <mxGeometry x="472" y="320" width="144" height="97" as="geometry" />
        </mxCell>
      </root>
    </mxGraphModel>
  </diagram>
</mxfile>
